<svg xmlns="http://www.w3.org/2000/svg" xmlns:xlink="http://www.w3.org/1999/xlink" width="1000" zoomAndPan="magnify" viewBox="0 0 750 374.999991" height="500" preserveAspectRatio="xMidYMid meet" version="1.0"><defs><clipPath id="cbf6143009"><path d="M 182.851562 103.847656 L 230.191406 103.847656 L 230.191406 329.027344 L 182.851562 329.027344 Z M 182.851562 103.847656 " clip-rule="nonzero"/></clipPath><clipPath id="4965de6f0e"><path d="M 13.136719 29.777344 L 487.667969 29.777344 L 487.667969 329.027344 L 13.136719 329.027344 Z M 13.136719 29.777344 " clip-rule="nonzero"/></clipPath><clipPath id="2d5b854b0a"><path d="M 125.441406 174.386719 L 155.65625 174.386719 L 155.65625 329.027344 L 125.441406 329.027344 Z M 125.441406 174.386719 " clip-rule="nonzero"/></clipPath><clipPath id="cd0d21a935"><path d="M 464.308594 83.84375 L 652 83.84375 L 652 309 L 464.308594 309 Z M 464.308594 83.84375 " clip-rule="nonzero"/></clipPath><clipPath id="51e0dbf37c"><path d="M 528 109 L 716.308594 109 L 716.308594 335.84375 L 528 335.84375 Z M 528 109 " clip-rule="nonzero"/></clipPath><clipPath id="80ac41d7af"><path d="M 238.664062 83.84375 L 427 83.84375 L 427 309 L 238.664062 309 Z M 238.664062 83.84375 " clip-rule="nonzero"/></clipPath><clipPath id="9d105f45a2"><path d="M 303 109 L 490.664062 109 L 490.664062 335.84375 L 303 335.84375 Z M 303 109 " clip-rule="nonzero"/></clipPath></defs><g clip-path="url(#cbf6143009)"><path fill="#918f8f" d="M 230.074219 329.027344 L 182.957031 329.027344 L 182.957031 103.925781 L 230.074219 103.925781 L 230.074219 329.027344 " fill-opacity="1" fill-rule="nonzero"/></g><g clip-path="url(#4965de6f0e)"><path fill="#dc1f28" d="M 60.921875 287.019531 C 39.59375 225.25 160.722656 127.335938 331.472656 68.332031 C 386.417969 49.339844 439.808594 36.695312 487.667969 30.335938 C 427.59375 26.914062 348.378906 39.191406 265.683594 67.773438 C 106.320312 122.84375 -5.585938 217.570312 15.742188 279.339844 C 26.144531 309.472656 66.332031 326.191406 123.257812 329.027344 C 90.355469 321.769531 68.078125 307.746094 60.921875 287.019531 " fill-opacity="1" fill-rule="nonzero"/></g><g clip-path="url(#2d5b854b0a)"><path fill="#dc1f28" d="M 125.515625 196.207031 L 125.515625 329.027344 L 155.203125 329.027344 L 155.203125 174.421875 C 144.542969 181.628906 134.625 188.910156 125.515625 196.207031 " fill-opacity="1" fill-rule="nonzero"/></g><path fill="#ed1c24" d="M 561.296875 193.035156 L 561.296875 140.164062 L 528.761719 140.164062 L 528.761719 225.570312 L 619.253906 225.570312 L 619.253906 279.460938 L 651.789062 279.460938 L 651.789062 193.035156 L 561.296875 193.035156 " fill-opacity="1" fill-rule="nonzero"/><g clip-path="url(#cd0d21a935)"><path fill="#918f8f" d="M 590.277344 110.289062 C 600.359375 110.289062 610.082031 111.800781 619.253906 114.585938 L 619.253906 181.851562 L 651.792969 181.851562 L 651.792969 99.84375 C 646.152344 96.683594 640.234375 93.957031 634.105469 91.683594 L 634.105469 91.660156 C 633.484375 91.429688 632.859375 91.210938 632.230469 90.988281 C 632.105469 90.941406 631.976562 90.898438 631.851562 90.851562 C 630.613281 90.421875 629.367188 90.011719 628.109375 89.613281 C 627.878906 89.542969 627.644531 89.46875 627.410156 89.394531 C 626.132812 89.003906 624.847656 88.621094 623.554688 88.269531 C 623.550781 88.269531 623.550781 88.269531 623.546875 88.265625 C 622.242188 87.910156 620.929688 87.582031 619.609375 87.269531 C 619.492188 87.238281 619.371094 87.203125 619.253906 87.175781 L 619.253906 87.183594 C 609.949219 84.992188 600.25 83.824219 590.277344 83.824219 C 520.695312 83.824219 464.285156 140.230469 464.285156 209.8125 C 464.285156 250.039062 483.140625 285.863281 512.492188 308.933594 L 512.492188 271.890625 C 498.890625 254.871094 490.753906 233.292969 490.753906 209.8125 C 490.753906 154.847656 535.3125 110.289062 590.277344 110.289062 " fill-opacity="1" fill-rule="nonzero"/></g><g clip-path="url(#51e0dbf37c)"><path fill="#ed1c24" d="M 666.640625 109.605469 L 666.640625 145.996094 C 681.09375 163.273438 689.796875 185.527344 689.796875 209.8125 C 689.796875 264.777344 645.238281 309.335938 590.277344 309.335938 C 580.195312 309.335938 570.46875 307.832031 561.296875 305.046875 L 561.296875 237.773438 L 528.761719 237.773438 L 528.761719 319.78125 C 533.96875 322.699219 539.402344 325.25 545.03125 327.417969 L 545.03125 327.425781 C 546.078125 327.828125 547.140625 328.214844 548.199219 328.589844 C 548.527344 328.707031 548.855469 328.820312 549.183594 328.933594 C 550.203125 329.28125 551.230469 329.625 552.261719 329.949219 C 552.484375 330.023438 552.707031 330.09375 552.925781 330.164062 C 554.121094 330.535156 555.332031 330.886719 556.542969 331.222656 C 556.871094 331.3125 557.195312 331.398438 557.523438 331.488281 C 558.769531 331.820312 560.019531 332.144531 561.277344 332.441406 C 561.285156 332.445312 561.292969 332.445312 561.296875 332.449219 C 570.601562 334.640625 580.300781 335.800781 590.277344 335.800781 C 659.855469 335.800781 716.265625 279.394531 716.265625 209.8125 C 716.265625 168.941406 696.800781 132.625 666.640625 109.605469 " fill-opacity="1" fill-rule="nonzero"/></g><path fill="#ed1c24" d="M 335.652344 193.035156 L 335.652344 140.164062 L 303.117188 140.164062 L 303.117188 225.570312 L 393.609375 225.570312 L 393.609375 279.460938 L 426.144531 279.460938 L 426.144531 193.035156 L 335.652344 193.035156 " fill-opacity="1" fill-rule="nonzero"/><g clip-path="url(#80ac41d7af)"><path fill="#918f8f" d="M 364.628906 110.289062 C 374.710938 110.289062 384.4375 111.800781 393.609375 114.585938 L 393.609375 181.851562 L 426.144531 181.851562 L 426.144531 99.84375 C 420.507812 96.683594 414.589844 93.957031 408.460938 91.683594 L 408.460938 91.660156 C 407.839844 91.429688 407.210938 91.210938 406.585938 90.988281 C 406.460938 90.941406 406.332031 90.898438 406.207031 90.851562 C 404.96875 90.421875 403.722656 90.011719 402.464844 89.613281 C 402.234375 89.542969 402 89.46875 401.765625 89.394531 C 400.488281 89.003906 399.203125 88.621094 397.910156 88.269531 C 397.90625 88.269531 397.902344 88.269531 397.902344 88.265625 C 396.597656 87.910156 395.285156 87.582031 393.964844 87.269531 C 393.84375 87.238281 393.726562 87.203125 393.609375 87.175781 L 393.609375 87.183594 C 384.304688 84.992188 374.605469 83.824219 364.628906 83.824219 C 295.050781 83.824219 238.640625 140.230469 238.640625 209.8125 C 238.640625 250.039062 257.496094 285.863281 286.847656 308.933594 L 286.847656 271.890625 C 273.246094 254.871094 265.109375 233.292969 265.109375 209.8125 C 265.109375 154.847656 309.667969 110.289062 364.628906 110.289062 " fill-opacity="1" fill-rule="nonzero"/></g><g clip-path="url(#9d105f45a2)"><path fill="#ed1c24" d="M 440.992188 109.605469 L 440.992188 145.996094 C 455.449219 163.273438 464.152344 185.527344 464.152344 209.8125 C 464.152344 264.777344 419.59375 309.335938 364.628906 309.335938 C 354.550781 309.335938 344.824219 307.832031 335.652344 305.046875 L 335.652344 237.773438 L 303.117188 237.773438 L 303.117188 319.78125 C 308.324219 322.699219 313.757812 325.25 319.386719 327.417969 L 319.386719 327.425781 C 320.433594 327.828125 321.492188 328.214844 322.554688 328.589844 C 322.882812 328.707031 323.210938 328.820312 323.535156 328.933594 C 324.558594 329.28125 325.585938 329.625 326.617188 329.949219 C 326.839844 330.023438 327.058594 330.09375 327.28125 330.164062 C 328.476562 330.535156 329.683594 330.886719 330.898438 331.222656 C 331.226562 331.3125 331.550781 331.398438 331.878906 331.488281 C 333.121094 331.820312 334.371094 332.144531 335.632812 332.441406 C 335.640625 332.445312 335.648438 332.445312 335.652344 332.449219 C 344.957031 334.640625 354.65625 335.800781 364.628906 335.800781 C 434.210938 335.800781 490.621094 279.394531 490.621094 209.8125 C 490.621094 168.941406 471.152344 132.625 440.992188 109.605469 " fill-opacity="1" fill-rule="nonzero"/></g></svg>