<svg xmlns="http://www.w3.org/2000/svg" xmlns:xlink="http://www.w3.org/1999/xlink" width="800"
    zoomAndPan="magnify" viewBox="0 0 600 599.999999" height="800"
    preserveAspectRatio="xMidYMid meet" version="1.0">
    <defs>
        <clipPath id="638b2075b1">
            <path
                d="M 4.164062 48.964844 L 283 48.964844 L 283 498.964844 L 4.164062 498.964844 Z M 4.164062 48.964844 "
                clip-rule="nonzero" />
        </clipPath>
        <clipPath id="8674f5fbc4">
            <path
                d="M 310 48.964844 L 595.914062 48.964844 L 595.914062 498.964844 L 310 498.964844 Z M 310 48.964844 "
                clip-rule="nonzero" />
        </clipPath>
    </defs>
    <g clip-path="url(#638b2075b1)">
        <path fill="#ff5757"
            d="M 157.292969 241.5625 C 129.304688 241.5625 103.546875 250.894531 82.726562 266.4375 C 84.777344 201.5625 134.894531 136.660156 233.789062 71.746094 L 219.113281 48.964844 C 75.824219 138.046875 4.167969 235.8125 4.167969 342.25 C 4.167969 391.128906 17.460938 429.433594 44.0625 457.101562 C 70.652344 484.824219 104.316406 498.648438 145.019531 498.648438 C 185.75 498.648438 218.566406 487.53125 243.546875 465.253906 C 268.503906 443.007812 281.003906 416.097656 281.003906 384.617188 C 281.003906 384.261719 280.9375 384 280.9375 383.621094 C 281.699219 378.039062 282.238281 372.394531 282.238281 366.5625 C 282.238281 297.546875 226.277344 241.5625 157.292969 241.5625 Z M 157.292969 241.5625 "
            fill-opacity="1" fill-rule="nonzero" />
    </g>
    <g clip-path="url(#8674f5fbc4)">
        <path fill="#ff5757"
            d="M 561.269531 452.875 C 562.882812 451.003906 564.84375 449.222656 566.328125 447.265625 C 584.730469 425.484375 595.910156 397.363281 595.910156 366.570312 C 595.910156 297.554688 539.960938 241.550781 470.976562 241.550781 C 439.375 241.550781 410.613281 253.382812 388.597656 272.753906 C 388.597656 271.984375 388.476562 271.335938 388.476562 270.542969 C 388.476562 204.289062 438.945312 138.003906 539.925781 71.734375 L 525.261719 48.964844 C 381.953125 138.046875 310.300781 235.8125 310.300781 342.273438 C 310.300781 391.152344 323.589844 429.449219 350.207031 457.121094 C 376.789062 484.839844 410.445312 498.683594 451.152344 498.683594 C 491.859375 498.683594 524.71875 487.546875 549.675781 465.261719 C 553.210938 462.152344 555.949219 458.660156 558.972656 455.324219 C 559.773438 454.53125 560.488281 453.703125 561.269531 452.875 Z M 561.269531 452.875 "
            fill-opacity="1" fill-rule="nonzero" />
    </g>
</svg>